<mxfile host="65bd71144e">
    <diagram id="FrxWe3jzZ1Rhsb7HLAZa" name="Page-1">
        <mxGraphModel dx="1289" dy="613" grid="1" gridSize="10" guides="1" tooltips="1" connect="1" arrows="1" fold="1" page="1" pageScale="1" pageWidth="850" pageHeight="1100" math="0" shadow="0">
            <root>
                <mxCell id="0"/>
                <mxCell id="1" parent="0"/>
                <mxCell id="18" value="" style="shape=stencil(rVnJThtBEP0aX0u9L2dC/gMJE6wQjAxk+ftUx+qhu2rm2UiRcnCGetO19atldv7m9fHuZb9z5vXtdPy+/3W4f3vc+S875w7Pj/vT4Y1/7fztzt88HE/7b6fj+/P9+f8vd02y/fpx/Nne8PuMK4EY0v6ZP+cnnnz49+DrWf7p8DzI50LVSPkC5D1lK+SD25ZPhbySB/okRyEJ+Zi25WOiVIV88UDekJ3lA1nw/sDqeiEf7ba8T5SNkM/An970P3/IV+BPFynO+kcyQB/H73dSPm/LW0fJCHkL9K8U5vBmysCdlfysTaUCtGHxOIk39ZD2hkyYAYksAliys0LsMJQPrEDOM4AdBBLaBnVhDAUDAIncfIKPPSbrgExJpJCBd8AWlXN8ArCBfWJmG/gaOZR1lswcuBgoAZWcUyeU7rctQJ3vATNHRCcsvLMAEmQiBoibnA28Ogyo4i4wlyJAkNmamT0iBAjyynx/kJdCJ/8OKA7HIVCYk69EClilNEe65O63LYAIXLUUKmQ8N2drZQpGgatk58DVSBVxcJUXqDJrAC+FLEmVAR4YzVVKuLUuT9bLoGINBqA6mC3VoADghJw7k44AUHlKkpW8GQ0C17xuJMAhts+dVMYTEKD0XmUAICKrtYdpAWQyqF7x/UoSEIHR1jBJiCMKrCh8hAw1Ux/IPgaYuSXhJw4BChknAQnQBntRFIjmB5AbdSGJEQBog6+wzRKAaKP6zr0DAOaGk2WU3VCR0bZrPAA8CpwGZNjrraiUceDYaJXfsL0KvVkbeQZdiCjb7XZHkQ06NRZeuDb5EizUK+mdOpFce4Ey7rBW7mimipJJ00ChiPJbE02FzcMKlVWKyGpNlrW3ptfS8WLV/wGsVAhWCQ2fugZhYmpVTlEfKoutjiobUFlslVoxWUIDYpYD6AWu5G4jKkAFJ3gvs3VI4K1ONOpkQlNN6TPMyEyABnjmkFSGmzIGRHGDcNvHgDK76UJjyTaYT7WuzWhxAm6OGSC66YxDzQDBrhnzNwPiTJZthEBeKjKZeEixWKU4JxOPQTBwKjWSgzzTUmO2gUe5ityaZBx4WEQ8Y2Pv2YZxNKBs9fKO8sBbEMD1pdYCsHAisKbHdRjaK0i+0s8ftgLI5iQziceiBOIcurrDXiMBi3n+nj3EUUlAfyOnaXYZmkR1xb0kLm4aXoGQm8U97KCT3EJZKM6mCTq1sDQ3V3spj3wfZbZZaG1bIEl59H6/jL8f8oh6g9rBWrjtCTx+zDWTbwN4f4yycTZ9i7i1ExZLOsxxeueMy6XeaZvegl65MzdwiNQ7edM3FOvykazUxyIuiXL2N+SA/7lPE/sOA3faRRV75iqkv2qJLNY/S39aOCGsyaOdudbHwW2NttfBrYL2p4MFT8fLww2BzgeP9f/kN6DL8vzj44PTw+Hp6fy9avy7/EDFj84ft/ztXw==);lineShape=1;strokeColor=default;" vertex="1" parent="1">
                    <mxGeometry x="66.01537205516229" y="108.24660243494964" width="77.15791857541214" height="176.4503408993792" as="geometry"/>
                </mxCell>
                <mxCell id="19" value="" style="shape=stencil(lVnJbtswEP0aXwdchts5Tf8jQJzGaBoHSbr9fYc1SItD68m+2dI8cvZNO3/38fzwtt858/H5fvy+/314/Hze+S875w6vz/v3w6f82vn7nb97Or7vv70ff74+nv6/PVTK+uvH8Vc94c8J58mHCnLm7+mBIWP/P/h6In85vC7IE0WjyD2vk1tPJQ/0lkxap5fjgqYPgB3H8/kJ8OO7dI3ekTGAPpJlRe/dOj07clHRB3A+F/Kan5jX6UOkoM/PgJ/oiYOmB+cnQ6z5KR7Qx2b+BT2QN1uy5Qb+cyDrNH1Ypy+msdvoGcpbnNZ/gv4m9GHUpxUHBQIIII8KsokM8NDiGwNdYk8ZscTk0wDwEgMRAEJz4a4jQw4YrUxG5kwF3ZDIjiyFRL5AgDJbZIrohtxed7uJDEhLhcyYKJKkJuRJhXhkSXw9gtQlgKhukDuRDIXyKINERwAAa0xLVh3BZLHUcTREjjDeBGAVT/IEJACxXBzdVTw+IZaEgZElceCCWGJKo17rncCZhGM/Wq6qAZg6+xaRC8BG1lMxWgEgzUQx9Zj2Fra8jJC8MQlRgNSh6Ey5wVMILWCWAODgwTTXWQBQZuKknUkAsBqaliU6ILfkdrk8T+VTAAZYzmdi5X044fvUdNIBsYXtGkAlfAFY4H3CklUyBGJ0Q6Y01iAJEVQURUuxaABKx2IH7XwMs4C0PWZiySJLe3LTDQ6xJK9ZAxK6gSfDicMDX+KgO2EBFFCpLwAiLFqVJQVILVWtCm00ICMtebIqV2asVqcrSukRsuYaOhvnVihXnS9ogN1wb6eFRpauATRpyQChL4YoioeaBJTQAbbpwlIwGoC6vprIpgBCfaXYgecAQvFgKU4BhLTEvdO+9oZbAcFO7h1gMr5QskKbR68tiqENmNeWXQGAeIixvV4CgHtL26kmoI0bpItMs5YAQGamOAsNnE8apjDVB1Tj6pSlfGmj6ZOpVqlV2nU0l3XfXDSucDBjvZjYao1Zp5nafWOWlHuLZVCNK9NuQvpGtJyoOULdwHBbUllSM4p0UBtqneYsOFxO3iqTXEDzgCM3ysClrVAuA6wezBjLIN5axiQg8y6a5PLULzlRA8itOempSWZ2hwBRd8bW4hElNrt2O7S90ZVrkwDjra5lvKKPaKCZ1j6hpYTVtRLfcH5dW030wMbiM2qNJvLiWmU1/6hP8nJcuoHelVaMF/wA/sXB2NygT1v0UCy9JdoEOOLRH3AzHJu39JDB7BNnRY6mMNtSyJkcOfPkyx6uSYxeqzjIuyQPo8gZpB+jA7FPMmvk4+m9q1oht5rcQXK1yTOwDJsWE2dylJqtzgkGzkO2rfjO5KhddLrNx/uNGz87bJLLj/MXjqfDy8vpA8nyvf4iIo9OX1P8/T8=);lineShape=1;strokeColor=default;" vertex="1" parent="1">
                    <mxGeometry x="381.0314693955297" y="101.32819872714276" width="96.86158775529618" height="166.50693571728857" as="geometry"/>
                </mxCell>
                <mxCell id="20" value="" style="shape=stencil(lVnbchRHDP2afe3qlvqmZ0L+gyrseCuOTRkT4O9RZ9PjbWnmrHkzi86MLkfXOfGHrw+fvtydKH59fXn+++77+fPrw4n/OBGdnx7uXs6v+teJP574w/3zy91fL8/fnj5f/v3l05Acf/3z/O94wo8LTlKgPFAUf15+oVDovx/+vMg/np+u5HsNXay8HMs3CdE+vyUgnwN3K5+P5WsPJVl5BvIpZKtPLcfyhUO09jbgn8xBVn04pHgszzk0MfLo+VRDokU+T4N25VOfj5vyJcQK5NnyoUwH78cr5LqIq34diac1uj10EK0WeFU+Jegd1cbI5xmOfTaHujpf3cWADRJKWcmQYHRTnGTfAHk6bB+QQo8roMN8SRT6GgDmUIFL1SPcVoDaDDI4lVBXQNZ3ghinalXKFUYtNZszWbDRPeQ1boVCRnHQKrS+oSgxkA0yq+AGUG4Bt1J0b5AgGGBsqBQYZLIC2hqHmkMBNgxurqlcNTLoDWmW2g0ggVAxIsulRiGCOChADKCEhLzEtgK0Duu1AvIah44b1ACsGactriAbeD5vAiTCmqcAWYueaE9AKrmeILhoa40wNihAgJe42iovFSaQpnwlC/ifjvt9M04yb4AWCES69EDdAlCpVDJHsgA4ipDN6VsAVak4AHBrd/QeNoA3KHNKtAAGRo8wObdGEIehgHMralnSbUcfgUNvkD0vIRu0uDuVEFtTjLOqbIg+x8SjV/RuAWjQUICZHIZZCOBGBxHIDbWxVQtoONTNqdRBNdacr929AamUd1QqyOhsh/nhJdCotdDV5OKA2Md2nJcbExlPE6/JhLyk849LuQK6oro1JQsgpFK1K8PIUVQFmm3Ut5K6h+SMJuRWN/+MuoBskFCdSh1FWlzp6ziBZOb8FaDinLZckluVTBy9UUdRgA2cJhB6wxam96bobwNcg7gqhoc9yFndgdVti9O11biPZmcE3LnLnISvABW8QWcB7yYEGPuCBwB+52TPGIMboApwcROTsg/kqO6i1cShw7Y4hmmX1HALEmdDgRuEAszKodWT8BaU3KiLkloXs756aQzTgN8KqCs1lL8V3zPMtKH8RWzV5dJkkK4cDAKn62tZ26gSntDOXuzOrmtTRm8oNuN0loXbaLHzj65+Famk263Z5AiecRRg5vuqZQap5NqoLshoG1WAXZDLPGUdXaLs5Ypgo1aAmY21LEC3kp2N8404JHd849m6D+5FdXUSd9hQmh1mmEMHTKp2Z6Lt3Lpf9mxXJ3wGIdtyKcGNKdkSpukqQJ9o99ZxOwKccHuAxhxVvGjnpLT9cqSPOU9gxtnLWIGzarHjNs8C/k56Mr4dNlt8Gd8liq3uBBuUctGMeAm2fc0NXtkT5wP23UO2jsZ5y3nnKT/CedB/KojzgrCfjO5TBJ68/KcOlQf+8Z9SVH80nrpPNbgZi5txIuxjQrZTRnyL4GnemzzqMcL2shDhWXisdu30fv6ovKzVOWH/7Mjf0L85/qOFxdlLkG/en4T1d/EieMj3fCB8nPrNT4O35fWPt++Q9+fHx8tnzOv/t98t9afLN0/++As=);lineShape=1;strokeColor=default;" vertex="1" parent="1">
                    <mxGeometry x="57.69735500312936" y="355.52751123251073" width="89.73476202914495" height="211.40694166885788" as="geometry"/>
                </mxCell>
                <mxCell id="21" value="" style="shape=stencil(lZjLctswDEW/RlsMSfC5TtP/yEyc2lPXzjhum/x9oapqDDC5tHe2xCMRwMWDmvjuZfvwvJmCezmfjt83v3eP5+3EX6YQdoft5rQ7y6+J7ye+ezqeNt9Ox5+Hx+X/88O8cv714/hrfsLrwuVEKc5UcG/LFU9c/l74uqzf7w6X6yPlpNZnih6ud14/31NBL+BuQ4VyhUBwCghMxQEgUNMmhEYZ2RCoVAVwooAB46ToqEUIJANkKhiITQEpUB0A2q2pkUNuFUC7VaQyAP4JZwWKoxKwl7Q0Slqt+kxLRhqlUURbypS1DZXJMwAqNR3pmikAoHhrdK1UgfjExKSBJuoCRrdCjTVQiIFbvXPknCUaSDm5XbIGKmXwiuatmFqDCVEl570FcgaBaJSqBRoIRMqrU/6XjXc/fEhEtoS8oqbPAfZrDl8ACVgtdYg7I9CWfKXENhAMBC6lseoyMMcSRE6qu0khARyQn5RGZ96Q10d87KVGJVnAA7dK4YpGGwkXy7SWxiuBIk6M3ZaA+iSHm+uMBoDcZm/d6oE0RAilDxzwUusqk1xBjbfxmvOX4gPSqNLTOiABoDDVLqkrSmq3dv6rc7R0CSFlAOxJGnPsjMhAGyGtOX8BeJRy8rxmA5FRUt8K9OUbd4ho559BCxIp6/0Mely1Qho0URnwnA7aoE17Gch0/xkMAr4b+QajhgBe2zAYZmbgpnFJAHfTQDYDuv0MRr7ZS9qtg6FSgKq9NBhbBch6S4PB2Hcj32D0FsBIYzDci5aSlsbg+ODdWh+uO5/IersjeP6R9dWelxwOc9BFUpSKkqfY85KjCPpCCFZGDiZzKHaIcVDXHO2oN6jYfq0NV66X+HfrwX4SW0Fge1Pt1yN/9qcYHC85k5Rb9HDzeXu4Xn68H+6fdvv98m3g8r79GCCXlg8JfP8H);lineShape=1;strokeColor=default;" vertex="1" parent="1">
                    <mxGeometry x="253.96235521486597" y="376.4217472219516" width="7.282839938450253" height="146.7205449328162" as="geometry"/>
                </mxCell>
                <mxCell id="22" value="" style="shape=stencil(lVjZctswDPwavWJ4E3xO0//ITJzaUzfOOE6Pvy84Cm0RtFaTN1nGijgWS5CTf3jfP73tJmfeL+fTz92fw/NlP/lvk3OH1/3ufLjI0+QfJ//wcjrvfpxPH6/P8++3p2pZn36dftcv/J1xgayvIGf+zS8s8fzi+2x+PLwuzG2gkDt7QwXYy/fZKnuf1+19JmOUvQX2oVBhbZ/W7ZMlF7U98D9bCk7ZGwb2hYz+/mdAd+2LI+7tHZkC7BO50NlHygHaxz4/1pLBgKAATAlEXD3qAS6TAykVwGeEDeATdik2ijVACGQAKQSgSBcNZeSSJFEBrlGtAVJfhiR9gF2KfdBJ3gCiVpf6RkilObnqUs+kHMgh6iVN7cxUECBT7FdgT4yyxJrczJQdUBdjdPtLg0B+S//3S9TigyUk6txXTrw0KK+GUl85WdMBl7IoSu/SIqz7osRNExdLFBBEkiAGQEKyJ2QzQxAIEFqhFmnKEQJC0QALlEwAihzCrwTymuJQudwyfR+QtdDU4gO+pmuICwBqUil1HAGgcNmRG1xChcvSYUYDkNBI0xersxQAv3NsHi8ABfE7DkEzRbyCUS4VKPgSdAkaEEEDSVrD0A9ojJHC6UpLxyG28qAzBdZByOcGlzICxKalCwAqnDRQGVoUzWIC0CIgwoP6ITRuLqiBxFVi8EUDPFI+Yf9Ab8Z1sKwBCWVp3CASZGsFhK8A2FHyGhDQtGEpKmrE9mZtSPQqBgf3h7rCsPFCgGlafQXIiAV0qX6vj6FOviBoASgx3hhPKqBP68YAJACrZjI8Yo0ubQxxzFrINsZEzlqMNwZRAeS+4zZGXQHEPug6TINNUQCuV406rgMx5qQHUTkQwBii3tjlyIEOBEK1oCoN26EyrU+Sb7PH6hkua3ukYlaPYx4KsdRUpVTsQQnkjJu0/wmdoVM7gN3sGeTHZq3zgTzabnXvRzgaSnn1CdQD74cLg9hGoPvJ0foe4YzntEgEqHNWd3xo+89dc9PqfjNHRDZtqlnUCfBmOOt4uBsbPTrKHgDKZPQ44dpNwEpmlPC4dlGyknfuzS0cn754y7RpLg+3C62Xw/E434ct/9cXYPJqvjzzj/8B);lineShape=1;strokeColor=default;" vertex="1" parent="1">
                    <mxGeometry x="379.6142614181947" y="365.67419032602345" width="49.714989874588426" height="158.3505680565382" as="geometry"/>
                </mxCell>
                <mxCell id="23" value="" style="shape=stencil(lVjLctswDPwaXzEkwQd4Ttv/yEycxtM0zjjp6+8L1aUjgtLausnyQiSBxQLgju/enu5f97vg3t5Px2/7X4eH96cdf9qFcHh52p8O7/q04887vns8nvZfT8cfLw/n36/3E3J6+n78OX3h99muOOIyWQX35/wmUvD/Xnw5458PLzN8ZuJq8WEdnzKxs3hex8dKUSw+AnygMuDzOp4Tid+AD5VctPgC8IE4Wbys4z1TsfupwP/ekfT7UYfVdXyl3LtHF0TxEqr9532hCPwjlHp88G3FFfz/1S/4TB74s5DkDs+eXEL43NONC+RPocK9+2PzwMr+jT8TQz5Uqn26ZE/Bgfh6y+dcYIA1nqk3KJ4EZJjXA/YZXyIMmRdyfQyKtDWXc0A52gdZAmWcNMarUogBSwNb1aqOHPCSssykcY0UwZY4U+7zuKamZMtCFC3z1CACJqW4sALykkpvrtaggNwsgcJgIEBcxFEZzoC4JEoN2bLCdMQ8nAHpV2npPl8BGchwaFUYZFBbAZgZZCAxaiBmSwVqqndKTmctBHBDl7CBECjD+rdJ6ukN9ms1K2ghAfxWp6RqDTLghsbJy2CApJIb12YGCW0pDGSq5FHkvC3+6iUYak+crQEqPwsGKt+AGwtbyk09bz10hlq54NbUyLIauFE2tlEjYXqP5FN9Rlsa6Z1bn3hrAqmQbM5RyO9RBgS2kgtCI1BdF6SswmZyOmO0BqhST3KcrAHqBRb0GxssVIjaPrFWg2yVUwPUwYXmkxtXmOposQYF8Huq1H4wAHTVXiAOXqpoKsm2LZ7xcW0usR2Q8hE1ZTwUUkwmr1k9lmoQCJ9aC3YxYKhM2rqKMXCU0PATrG5IghVCu+nYJ4T4K+OSOXMpMIHERqGkK+NM7rVY2Yu6SlXqPmg6DSDJiFbEdNyIwKPBTts6zkQ0PLRhZz4uAX+6lifzcQx839lxchr3AOdcG+7m4ySoz86OMtO4Cig6FAUdh1G8hu8rZZFSuNb8XvhJCbgnWDor2yB7TH4F8ii4zlZZByugKgRbvEdkG+5GrmqcKWeKB98f73YcrPnj3ZHiN91NOUjO8e7rQo8b79Yc7IrGuzvXiu0y3reRdxYvXFmT9ScD/5eLdsz4A+JbYtPKDzxqTKd7it4/WNwUb9TTw9FxxIcWkBv3E0jw/s15eaM/LzcAN8aLsT8HPkQonlvviq/j9eHjYvrx8Px8vtee/28vsvXV+RKcP/8F);lineShape=1;strokeColor=default;" vertex="1" parent="1">
                    <mxGeometry x="104.00975190407758" y="625.3232656864361" width="64.7482516276661" height="144.95913868531716" as="geometry"/>
                </mxCell>
                <mxCell id="24" value="" style="shape=stencil(lZdBctswDEVPoy0GJEiQXKfpPTITp/bUtTOO2ya3L1RVrgjZP+OdLOOJIIAPkIM8vG2fXjdD5Lfz6fh983v3fN4O8mWIcXfYbk67sz0N8jjIw8vxtPl2Ov48PE+/X59Gy/Hpx/HX+IX3iUtKWkYq8sf0JpLkvy++Tvb73WFpHylKZ19IBNgLSf/9IKQKAKUaeocicbgN5ECNO0DwCjlT7YFUKIM9aKDYAxop822gBAr9pkshLreBKhRiB9Q6h+Eq0Bpp7YBWPgNq7oFKCQGVYvRAqwBI1FIPNEogD419aYxOApeqrdA88O/N9Ty0uZaXAMhDScQroABALQ/rTYPSUKXcVmFFQKYYPCARAur2UKig8rbKUQ8EkGkrb3UuKVyh2KZXQEog03GVB4VtppZVHhTmoUUq7AEFmR63yD5KDIrPCsELyJwEiQvMxG6JOif/lkabeqAgn9R3MvNS0AqX3rsUBNKote+VIBoYKDX4MC3icL2aMpXVEhU0msJz41oAGZSfKSKJBxgowjSXik9ExiK9D0jVj5R6qa+rgFgb6BuNzSA02WOeR9RiyikAQvV9w+YokpBN/tq7ZJO6onZM0lerHQUiyFvwErUVCyiMld5M46jvzVK5fJ4q6kk+xYEEOc+zsGZ7hoNhHU2GFRSKVybDYI4HQe8Pg2BaeFi9PfBfgj/o4e+L9a5yh/+Jfa9jeMobT6rZxx90upQp9/u1/OKDrRNkmI9kN+3vOpl/am8P/68BL7v9frpFLP/31wZ7NV055PEP);lineShape=1;strokeColor=default;" vertex="1" parent="1">
                    <mxGeometry x="255.31198168932087" y="639.2056205127699" width="10.488079371503838" height="99.32699076268462" as="geometry"/>
                </mxCell>
                <mxCell id="25" value="" style="shape=stencil(lVfZctswDPwavWJI8AKf0/Q/MhOn9tS1M47T4+8LVaUtQvJ6/CbLWOLYJQAN4elj+/K+Gdh9nE/H75tfu9fzdghfBubdYbs57c76NITnITy9HU+bb6fj5+F1+v3+MlqOTz+OP8cTfk+4FCmnEcXuz/SGqbh/L75O9vvdYWZfhJzv7D1TBoCq50nvIJLPALDwEAp5DwDVppAclXgb4J0j5zpEDpQLcFHagQ1QEgUBgEApdwCJVEFMxZPrPajPzLcBOVMOPUBgDtm1Kl4AlSIgIjH5ZAEVEBFDU8IcAKoUtIjRAv5zuQpgIY426QqS5rAoqzTu1wGOuPaATIJCUkCv75oaMzdDMjxEiigHIW88qLpADlpWLj2ASYCWlLjEFhArlIYTC0igSio+y0OAPKi80yLpAkIaL9CirAJ4KFqT/ooq0w5UST1Ucx9Kk+N6DkLBeJAm+HUANyHM7gODHLR718WdFlDWmCn2Ocya4bqYxPbKOy6Co8iPJKHzwKpPy4SvnM0aE+EvbWhONQrJkyzFBDyMAPcIIKbW3WcDIuBubAA6gu5ow/di0iFXQFnVA/cedI5W4CFKmx+zSY1mVtTz+ubKiRJqfYmkJ84n8ohpqz2dMGBiLfYA5QCEo63ebCYU0SxpGruuVqjPp+b7kiucI961btXsMVtauWLtYfTcKn21d6AB65iSau3xlDLbgmv7xrp49IoVY5+Q2IpdLjyMP2m5jdbg/Hh0c75vrw/XNf1tt99PW/78f7vW66vpkyA8/wU=);lineShape=1;strokeColor=default;" vertex="1" parent="1">
                    <mxGeometry x="344.3062132409884" y="721.726037574502" width="8.589272586445338" height="60.36817094160061" as="geometry"/>
                </mxCell>
                <mxCell id="26" value="" style="shape=stencil(nVjZkhoxDPwaXlWW5UvPm81/bNWygQqBLZZcfx9NKAPWQBPyBowbXd2SPAt5+li9vC8XMXwc9ruvy5/r18NqIZ8WMa63q+V+fbBPC3leyNPbbr/8st99374ev7+/TCenT992P6Z/+HXExUKhTKgYfh9/YdL894fPx/Ob9XY8zzqcz1QTOF+p1OF8o8LgvFLOoz9MAgyIUBwd4kQMLEjtAZ4AhRRYSJFUBkAM0KXUKI85jYmk3AZkoTLGYFmqEQAatTgAJJGG24BiFsYYLKokAFAphbHODAGVqY6FLkwMslQzpTYClBqyoL4OtVJstwEtUeWRexFaaI1ktNAqSb0NUKY8Bq2BGqiDJkojNdQqgwDaiXACVCg4nWVJG2SrPW7ZAxSQT0v3+ARQSggg/fEFoCqog3q2TlGhSmcq6SEAUyszlwCgNi/RO0HXQumhtJoeRD1AkB4s6Dk1EKASBw9gQG9TnA+6dEldT6sQRw9IgN6mrzADRKS4QDpzCWXJFFfYAzIgn+Ukz7IUQNBGBCkekIHiOAQKzkSDvXIyMSMTKrV5kFxjUpzX5GeWAQoQxFSIueRADM2m7OjSRR5usSnMgmh3+Jo9IIPBa4qYWwiAHJPm2Bci3xHpYwAbKeNYtPapKOhAySmCuwqvj3b1QZsKUalL8f3bKhOBIqbJP5LJEp3BVplLp/8JYNQAZLJlxHUms4kmdSp9VbjYZwoCWAwjwDamBtIqMwXJacO5tUrrmNZp+QUWbO10Q8uWbwEA24Rd0LbdC2plfgRxhbeB1Ifsxe6N1lD2VGVchNDzcb48oBLM2iq+mwTiccvAV5/g5wLD8rIXPkNGi0996L3sugB6+z8fR1Owed8DvCNZWbL/e9SpreylPHK+evlif+xx8v+Pwo2xb+H/lk0jsmu6uFiWfuc/5sJ/3LLvnLcP5yv923qzOb4RuHzuXwHYT8fXB/L8Bw==);lineShape=1;strokeColor=default;" vertex="1" parent="1">
                    <mxGeometry x="422.6004401173552" y="635.7885101888492" width="20.50727100378611" height="135.37211537629528" as="geometry"/>
                </mxCell>
                <mxCell id="27" value="" style="shape=stencil(lVhJchsxDHyNriiS4AKeneQfrrIcq+JYLtnZfh8wKipDcKZl3ewRegZbY9vx3dvT/et+F9zb++n4bf/r8PD+tONPuxAOL0/70+Fd/9rx5x3fPR5P+6+n44+Xh/P/r/dNsv31/fizveH3GcdUfAMF9+f8wFHgfw++nMWfDy8L8UpejLgv2+JeKBcj7+K2fIjkq5V32/LsqNj3+wDkhWIw8py25WMh74y81G35lInH93sqQP+cuju6fOgKrsqXQHkMF5PLQF79z0Y+g3gJUxr1j5TB+2Xyz8UB6/KaP6M+Av2p8mL86XvEtwA1jQB1MQaUUSNfyYGUUEAcTVafRgzwJsZCAakkVPMYNA0LIGX7gskKfQWgWbNhBMRIAeRpi8NodLxYtV4nnAUkzTzgpeptpFPpr1gHBKoj9bMnBrlUY//5AogkSKVEPKZGFkpIpUxutEH5GgQC4pgaJfd03AKk0QZxVJHRmWTMJYk9f9cBxWarctyhL4gt2S32HvQEd6npF0TEVqvbR1LrE0Z+9bYt1ArrsCRbNhRQAaAkKqNfF2atI2LvlItPoNqnuVOiBSRQN4qnHCwAdgfXq8TCrxGwukztVtOlAAqpSqYyKQCVYwXYQChHQKgL24mksRAkk8YhG0CCLUUpyW4CIC8VyzkFVNTVay++CxsYUEhJPxstqE+7nv6LOCTUqGeANq3bVBKo0orRl670UbdW2CFWAldhsWypUScASm+eal/tr/hoeqsbrhAoWLeiPrpK0YoINBeBQgHbYMtMhkNiK2RsAR4BYv95QSBBjJuqcaMoYtytAG0Q1gZ9gtpimGzQQgbKjPasZOLAxAigbdYwzsMhTgFlDFwb3wHjFFANIML+0ACjSuLhMK2APHpJSSs3zfeaXcitCuARoENcQaVSbHrrkhbQMF3sEKeDaAaMEx3iRqOTwK1Yky+NyafDNPRStDuKjutorde9z9TWthAgG9i6lSscf0THdbOjXFlqgr1MtLUJqRTsbt8WMxTpQG78Qlv90Bc0rqNbdblE5w8FhLE/+ACHae2i0RCIGFXKbNt0vjqPiZFH41jmPspfMg/26DTdMyLcBWK294AI2yEXu/RxT6ut+xCLkUdVe74/MWxt832Le/X42PlMMxSoMx3nVBxQJthgMdyS/OxLVOd8ryCL0xMw1dnLU4BDs6NgyAvX1GmFDFeUMeLK5FuUUdtBFkymOjjuT450UJkpTA6eCKckcLBq3nj/vSquf/w/NT8enp/Pl+rl7/Y0rY/OZ23+/Bc=);lineShape=1;strokeColor=default;" vertex="1" parent="1">
                    <mxGeometry x="455.50311298613155" y="628.2363348323697" width="71.22525108833965" height="166.61008069942196" as="geometry"/>
                </mxCell>
            </root>
        </mxGraphModel>
    </diagram>
</mxfile>